<svg xmlns="http://www.w3.org/2000/svg" viewBox="0 0 123 16" fill="none"><path fill="var(--tag)" d="M115.485 12.96v-1.392l4.96-2.432c.203-.096.389-.176.56-.24.181-.075.315-.123.4-.144a3.899 3.899 0 0 1-.416-.128 6.246 6.246 0 0 1-.544-.256l-4.96-2.448V4.48l6.88 3.44v1.6l-6.88 3.44ZM105.731 15.76l5.68-15.04h1.52l-5.68 15.04h-1.52Z"/><path fill="var(--domain)" d="m98.761 14-2.944-8.8h1.473l1.951 5.92c.118.352.225.693.32 1.024.096.32.166.57.208.752l.224-.752c.096-.33.198-.672.305-1.024l1.903-5.92h1.457l-2.944 8.8h-1.953ZM90.144 14.16c-.694 0-1.302-.139-1.824-.416a3.01 3.01 0 0 1-1.2-1.168c-.278-.512-.416-1.104-.416-1.776V8.4c0-.683.138-1.275.416-1.776a3.01 3.01 0 0 1 1.2-1.168c.522-.277 1.13-.416 1.824-.416.693 0 1.296.139 1.808.416a2.88 2.88 0 0 1 1.2 1.168c.288.501.432 1.093.432 1.776v1.552h-5.472v.848c0 .693.176 1.227.528 1.6.352.363.853.544 1.504.544.554 0 1.002-.096 1.344-.288a1.27 1.27 0 0 0 .624-.896h1.44c-.096.736-.459 1.323-1.088 1.76-.619.427-1.392.64-2.32.64Zm2.032-5.168V8.4c0-.693-.176-1.227-.528-1.6-.342-.373-.843-.56-1.504-.56-.65 0-1.152.187-1.504.56-.352.373-.528.907-.528 1.6v.464h4.176l-.112.128ZM80.038 14.16c-.875 0-1.584-.293-2.128-.88-.533-.587-.8-1.381-.8-2.384V8.32c0-1.013.267-1.813.8-2.4s1.243-.88 2.128-.88c.725 0 1.307.197 1.744.592.437.395.656.923.656 1.584l-.288-.336h.32l-.032-2V2.32h1.44V14h-1.44v-1.68h-.288l.288-.336c0 .672-.219 1.205-.656 1.6-.437.384-1.019.576-1.744.576Zm.48-1.248c.597 0 1.067-.187 1.408-.56.341-.373.512-.89.512-1.552V8.4c0-.661-.17-1.179-.512-1.552-.341-.373-.81-.56-1.408-.56-.608 0-1.088.181-1.44.544-.352.363-.528.885-.528 1.568v2.4c0 .683.176 1.205.528 1.568.352.363.832.544 1.44.544ZM70.956 14.16c-.405 0-.73-.117-.976-.352-.234-.235-.352-.55-.352-.944 0-.416.118-.747.352-.992.246-.245.57-.368.976-.368s.726.123.96.368c.246.245.368.576.368.992 0 .395-.122.71-.368.944-.234.235-.554.352-.96.352Z"/><path fill="var(--name)" d="M58.035 14V5.2h1.44v1.68h.303l-.303.336c0-.693.207-1.227.623-1.6.416-.384.992-.576 1.729-.576.885 0 1.589.272 2.111.816.523.544.784 1.285.784 2.224V14h-1.44V8.24c0-.63-.17-1.11-.511-1.44-.331-.341-.785-.512-1.36-.512-.598 0-1.072.181-1.425.544-.34.363-.511.885-.511 1.568V14h-1.44ZM48.329 14v-1.312h3.12V6.512h-2.72V5.2h4.16v7.488h2.96V14h-7.52Zm3.68-10.384c-.352 0-.63-.09-.832-.272-.203-.181-.304-.427-.304-.736 0-.32.101-.57.304-.752.202-.192.48-.288.832-.288s.63.096.832.288c.202.181.304.432.304.752 0 .31-.102.555-.304.736-.203.181-.48.272-.832.272ZM38.847 14V2.32h1.44v4.56h.304l-.304.336c0-.693.208-1.227.624-1.6.416-.384.992-.576 1.728-.576.885 0 1.59.272 2.112.816.523.544.784 1.285.784 2.224V14h-1.44V8.24c0-.63-.17-1.115-.512-1.456-.33-.352-.784-.528-1.36-.528-.597 0-1.072.187-1.424.56-.341.373-.512.901-.512 1.584V14h-1.44ZM29.301 14V2.32h1.44v6.512h1.696l2.56-3.632h1.648l-2.96 4.192L36.693 14h-1.68l-2.56-3.92h-1.712V14h-1.44ZM22.971 14.16c-1.013 0-1.823-.299-2.431-.896-.608-.608-.912-1.43-.912-2.464V5.2h1.44v5.6c0 .661.17 1.179.511 1.552.342.363.806.544 1.392.544.598 0 1.067-.181 1.409-.544.352-.373.527-.89.527-1.552V5.2h1.44v5.6c0 1.035-.309 1.856-.928 2.464-.618.597-1.434.896-2.448.896ZM9.65 14V5.2h1.264v1.056h.288l-.224.384c0-.49.128-.88.384-1.168.266-.288.624-.432 1.072-.432.49 0 .87.181 1.136.544.266.363.4.875.4 1.536l-.432-.864h.672l-.304.384c0-.49.133-.88.4-1.168.277-.288.64-.432 1.088-.432.554 0 .981.208 1.28.624.31.416.464.965.464 1.648V14H15.81V7.296c0-.363-.08-.645-.24-.848-.15-.203-.374-.304-.672-.304a.853.853 0 0 0-.688.304c-.16.192-.24.47-.24.832V14h-1.152V7.296c0-.373-.086-.656-.256-.848-.16-.203-.39-.304-.688-.304-.299 0-.523.101-.672.304-.15.192-.224.47-.224.832V14H9.65Z"/><path fill="var(--tag)" d="M7.24 12.96.36 9.52v-1.6l6.88-3.44v1.392L2.28 8.304c-.203.096-.395.181-.576.256-.17.064-.299.107-.384.128.096.021.235.07.416.144.181.064.363.144.544.24l4.96 2.448v1.44Z"/></svg>